Coordinates
version=1
nRows=17
nColumns=34
inDegrees=yes

Units are S.I. units (second, meters, Newtons, ...)
If the header above contains a line with 'inDegrees', this indicates whether rotational values are in degrees (yes) or radians (no).

endheader
time	pelvis_tilt	pelvis_list	pelvis_rotation	pelvis_tx	pelvis_ty	pelvis_tz	hip_flexion_r	hip_adduction_r	hip_rotation_r	knee_angle_r	ankle_angle_r	subtalar_angle_r	mtp_angle_r	hip_flexion_l	hip_adduction_l	hip_rotation_l	knee_angle_l	ankle_angle_l	subtalar_angle_l	mtp_angle_l	lumbar_extension	lumbar_bending	lumbar_rotation	arm_flex_r	arm_add_r	arm_rot_r	elbow_flex_r	pro_sup_r	arm_flex_l	arm_add_l	arm_rot_l	elbow_flex_l	pro_sup_l
      0.00000000	     -1.34431210	      0.15815968	     -0.29281902	      1.80749842	      0.89675778	     -0.08425121	     -1.32749655	     -2.38531706	      0.41817969	      3.36477646	      5.21404840	    -13.39114377	      0.00000000	     -2.00284318	     -4.90163583	     -4.95527436	      3.56618799	      8.36143674	     -3.64388226	      0.00000000	     -6.54032954	      1.90106224	     -3.67765860	     12.06962186	     -7.81198251	     39.55517045	     84.31569427	     97.18713032	     -0.61086583	     -4.74727661	     23.71319229	     88.54270198	     97.30349779
      0.01666670	     -2.71710122	      0.15648008	     -0.17381603	      1.80901153	      0.89591836	     -0.08547858	      0.40153770	     -2.19691083	      1.34372493	      3.74741418	      8.66235207	    -10.57508993	      0.00000000	      0.40182560	     -4.46573177	     -4.29815177	      4.19719273	      8.77677795	     -2.72454683	      0.00000000	     -4.35585618	      2.25758746	     -3.23939585	     10.02276968	     -7.72914657	     35.68484729	     84.85123988	     95.87562303	     -1.06532770	     -4.61122184	     23.41088723	     87.79728375	     96.04512112
      0.03333330	     -2.91358755	      0.77776555	     -0.54209809	      1.80923065	      0.89611518	     -0.08427990	      0.29057913	     -2.97791202	      1.42906796	      3.00321213	      8.58567343	    -10.62062219	      0.00000000	      0.50056994	     -3.97867373	     -4.65604406	      3.91969715	      8.38228551	     -2.53136442	      0.00000000	     -3.98732780	      1.41201295	     -2.46541986	      9.86001107	     -7.72915719	     35.54510527	     84.34141420	     95.75297593	     -0.79227653	     -4.95827755	     23.27844443	     87.59844156	     95.79438385
      0.05000000	     -2.81111921	      1.16203772	     -0.61371381	      1.80956515	      0.89764293	     -0.08315106	     -0.06810912	     -3.44010868	      1.76078120	      2.54990449	      8.81118465	    -10.68207423	      0.00000000	      0.00000109	     -3.63396662	     -4.36931429	      3.48439141	      8.55902287	     -2.64189085	      0.00000000	     -3.97586782	      0.80683515	     -2.11920445	      9.35601742	     -7.67124718	     35.78937467	     83.99482631	     95.72935395	     -0.48662784	     -5.33274059	     23.10762097	     87.29953238	     95.72204902
      0.06666670	     -2.02337946	      1.34834187	     -0.82341196	      1.80944868	      0.89940096	     -0.08267145	     -1.19690026	     -3.62525077	      2.33214705	      1.89963220	      8.59429495	    -11.28004322	      0.00000000	     -1.43014084	     -3.40541717	     -3.92991720	      2.52987620	      8.08657217	     -3.20299250	      0.00000000	     -4.83335905	      0.55490485	     -1.36834437	      9.53518817	     -7.63888103	     36.28620841	     83.45922004	     95.59061755	      0.40473826	     -5.22047489	     23.96355004	     86.21356016	     95.63295231
      0.08333330	     -1.59463179	      1.42473295	     -0.80311003	      1.80924552	      0.90035978	     -0.08294941	     -1.85416511	     -3.66399815	      2.74317631	      1.42728116	      8.15930927	    -12.06044692	      0.00000000	     -2.09982217	     -3.29958606	     -3.22413247	      2.18931154	      8.03364751	     -3.80761223	      0.00000000	     -5.31446278	      0.46293637	     -1.01382123	      9.51616980	     -7.78753422	     36.86773303	     84.06669170	     95.36569953	      1.12601693	     -5.32226812	     25.06909528	     85.94884739	     95.62649351
      0.10000000	     -1.60322934	      1.45580247	     -0.83488948	      1.80906833	      0.90047934	     -0.08328693	     -1.88700845	     -3.66096859	      2.84077330	      1.21722773	      8.17400382	    -12.14661199	      0.00000000	     -2.21587344	     -3.23355628	     -2.98988049	      1.97473516	      8.09637760	     -3.81618138	      0.00000000	     -5.27080020	      0.41425588	     -0.90010638	      9.53515468	     -7.63019873	     36.98591145	     84.20598463	     95.33933494	      1.21392146	     -5.24779263	     25.16259011	     85.94293089	     95.62832888
      0.11666670	     -1.07663675	      1.49952879	     -0.80689484	      1.80903576	      0.90076703	     -0.08383832	     -2.69635156	     -3.70543536	      3.23460022	      0.73007028	      7.56321363	    -13.08389348	      0.00000000	     -2.96372231	     -3.09188282	     -2.35872553	      1.66710235	      7.73918747	     -4.50951405	      0.00000000	     -5.82270535	      0.38408827	     -0.71146272	      9.56972502	     -8.13744687	     37.63909671	     85.03254191	     95.09586465	      1.73187056	     -5.30425374	     25.88344348	     85.50844607	     95.65134401
      0.13333330	     -1.07096937	      1.48776881	     -0.80450743	      1.80898064	      0.90105716	     -0.08402743	     -2.67144004	     -3.68366948	      3.23537573	      0.71109398	      7.56443636	    -13.08675654	      0.00000000	     -2.98051623	     -3.06111642	     -2.35548820	      1.67308019	      7.73847107	     -4.50964458	      0.00000000	     -5.82287989	      0.38365489	     -0.71157548	      9.57297453	     -8.13766844	     37.63888987	     85.03523882	     95.09498202	      1.73891173	     -5.30803914	     25.88216041	     85.50784363	     95.65117439
      0.15000000	     -0.67038203	      1.48900862	     -0.79308137	      1.80887051	      0.90171273	     -0.08438095	     -3.36678238	     -3.70514914	      3.66666667	      0.14590865	      6.90941892	    -14.16463976	      0.00000000	     -3.59557283	     -2.98114084	     -1.70228001	      1.33882785	      7.27896097	     -5.31694462	      0.00000000	     -6.35943133	      0.45842587	     -0.55615129	      9.89147882	     -8.61446515	     38.22653346	     85.93494512	     94.71918584	      2.56884874	     -5.54927624	     26.55607439	     84.64270779	     95.60380921
      0.16666670	     -0.67669346	      1.48060936	     -0.79438130	      1.80893080	      0.90160095	     -0.08448624	     -3.35861224	     -3.68860203	      3.67023181	      0.13811623	      6.90854098	    -14.16563741	      0.00000000	     -3.60677399	     -2.95617405	     -1.69944584	      1.34634981	      7.27510140	     -5.31644647	      0.00000000	     -6.36444491	      0.45794529	     -0.55915442	      9.88928181	     -8.62224036	     38.22533492	     85.93423960	     94.71775247	      2.57337399	     -5.55858423	     26.55448955	     84.63931480	     95.60334220
      0.18333330	     -0.70352120	      1.48917212	     -0.87425292	      1.80882877	      0.90156512	     -0.08396146	     -3.35931706	     -3.69260313	      3.73460843	      0.00000000	      6.88387581	    -14.20900501	      0.00000000	     -3.60007761	     -2.93081050	     -1.63035773	      1.34052578	      7.16860973	     -5.31112636	      0.00000000	     -6.46250767	      0.46319810	     -0.63613835	      9.90528731	     -8.85058073	     38.18007329	     85.94813505	     94.68941900	      2.69974861	     -5.84894670	     26.49304489	     84.52106824	     95.59209099
      0.20000000	     -0.61605160	      1.50250707	     -0.81703669	      1.80866616	      0.90181593	     -0.08343039	     -3.45601549	     -3.65960623	      3.83335854	      0.00000000	      6.76738575	    -14.39274125	      0.00000000	     -3.68889665	     -2.93553273	     -1.49981211	      1.30869244	      6.87450108	     -5.34135092	      0.00000000	     -6.51820217	      0.44378074	     -0.72196845	     10.07757424	     -9.10656916	     38.15787792	     86.14148518	     94.61785722	      2.97073000	     -6.35652035	     26.46748419	     84.20651715	     95.56513049
      0.21666670	     -0.61433163	      1.51045724	     -0.81859904	      1.80874055	      0.90161390	     -0.08368325	     -3.45638815	     -3.65407080	      3.83334065	      0.00000000	      6.76693769	    -14.39366098	      0.00000000	     -3.68790063	     -2.93704394	     -1.49944870	      1.30763342	      6.87360138	     -5.34160153	      0.00000000	     -6.51918718	      0.44382656	     -0.72206885	     10.07797107	     -9.10671680	     38.15820452	     86.14222936	     94.61760576	      2.97175781	     -6.35769666	     26.46768629	     84.20544608	     95.56502901
      0.23333330	     -0.16057399	      1.49661706	     -0.77572992	      1.80822298	      0.90256032	     -0.08433191	     -3.94277100	     -3.63512098	      4.45390103	      0.00000000	      5.79981912	    -16.21744886	      0.00000000	     -4.28879295	     -2.93305573	     -0.84565273	      0.99993078	      5.93988381	     -6.49372994	      0.00000000	     -7.21217699	      0.48629654	     -0.37823661	     10.28078338	     -9.79736330	     38.81727889	     87.31877633	     93.90872323	      4.26075564	     -6.83321778	     27.84283548	     82.97796032	     95.27132580
      0.25000000	     -0.16164773	      1.50339412	     -0.77805541	      1.80825038	      0.90317618	     -0.08454850	     -3.94293277	     -3.62893426	      4.45341133	      0.00000000	      5.79977943	    -16.21806066	      0.00000000	     -4.28788640	     -2.93238724	     -0.84524244	      0.99996697	      5.93891500	     -6.49333731	      0.00000000	     -7.21122823	      0.48647233	     -0.37764016	     10.28093357	     -9.79734582	     38.81682739	     87.31924021	     93.90837474	      4.26137142	     -6.83527559	     27.84231633	     82.97776478	     95.27111656
      0.26666670	     -0.18444984	      1.53778715	     -0.73649830	      1.80815261	      0.90357283	     -0.08451366	     -3.90539403	     -3.64597511	      4.36991795	      0.00000000	      5.63486684	    -16.43738325	      0.00000000	     -4.27911753	     -2.89597183	     -0.82358398	      0.91264101	      5.46761576	     -6.40441285	      0.00000000	     -7.15428757	      0.43477871	     -0.42686715	     10.19681273	     -9.86523885	     38.65589038	     87.51222107	     93.72767850	      4.49706477	     -7.30240911	     27.84587557	     82.86601412	     95.16652414
